<svg width="42" height="42" viewBox="0 0 42 42" fill="none" xmlns="http://www.w3.org/2000/svg">
<g clip-path="url(#clip0_239_345)">
<path d="M13.2999 41.9999H28.6999C29.8597 41.9999 30.7999 41.0597 30.7999 39.8999V35.6775C34.3563 32.7607 36.4126 28.3994 36.3999 23.7999C36.4698 19.8944 34.9468 16.1288 32.1817 13.3699L33.4074 12.1442C33.6751 12.2742 33.9687 12.3421 34.2663 12.343H34.3426C34.9529 12.3395 35.5308 12.0676 35.9225 11.5996V11.5961C36.6138 10.729 36.5354 9.47904 35.7412 8.70509L32.8299 5.79099C32.4514 5.40517 31.9353 5.18538 31.3949 5.17989H31.3172C30.7696 5.18107 30.2453 5.40139 29.8612 5.79169C29.233 6.42175 29.0688 7.37875 29.451 8.18219L27.6849 9.94829C27.0159 9.61469 26.3231 9.33112 25.6122 9.09989C24.1674 3.49989 17.7519 0.781791 15.8087 0.0789909C15.297 -0.102596 14.7266 0.0259309 14.3422 0.409391L13.0269 1.70299C12.7496 1.97217 12.5952 2.34349 12.5999 2.72989C12.6039 3.11821 12.7653 3.48829 13.0472 3.75539C14.6195 5.20281 15.7452 7.06955 16.2917 9.13559C10.9307 10.8571 6.93662 15.367 5.8758 20.8968C4.81497 26.4265 6.85657 32.0944 11.1999 35.6775V39.8999C11.1999 40.4569 11.4211 40.991 11.815 41.3848C12.2088 41.7786 12.7429 41.9999 13.2999 41.9999ZM30.3575 9.25599C30.6334 9.51433 31.0645 9.50703 31.3315 9.2395C31.5984 8.97196 31.6048 8.54082 31.3459 8.26549L30.851 7.77059C30.5791 7.49748 30.5791 7.056 30.851 6.78289C30.9798 6.65123 31.1569 6.57811 31.341 6.58059H31.355C31.5386 6.5729 31.7163 6.64638 31.8408 6.78149L34.7528 9.69349C35.0322 9.95405 35.0753 10.3813 34.8536 10.6924C34.7241 10.8631 34.5171 10.9568 34.3034 10.9416C34.1211 10.9491 33.9448 10.8761 33.8211 10.7421L33.3262 10.2472C33.0509 9.98827 32.6197 9.99466 32.3522 10.2616C32.0847 10.5286 32.0774 10.9597 32.3357 11.2356L29.9809 13.589C29.6296 13.9532 29.1092 14.0995 28.6197 13.9717C28.1301 13.8439 27.7476 13.462 27.6191 12.9726C27.4906 12.4832 27.6362 11.9626 27.9999 11.6108L30.3575 9.25599ZM6.9999 23.7999C6.98606 17.7131 10.9168 12.3186 16.7152 10.467C17.4261 10.2439 17.8405 9.50593 17.6609 8.78279C17.0296 6.45689 15.7648 4.35196 14.0076 2.70259L15.3432 1.39989C17.1121 2.04039 22.983 4.51279 24.257 9.45339C24.3759 9.9227 24.7305 10.2963 25.1929 10.4397C25.7014 10.6031 26.1995 10.7972 26.6846 11.0207C25.8843 12.2132 26.1159 13.8178 27.2209 14.7352C28.3258 15.6527 29.9457 15.5854 30.9707 14.5795L31.1926 14.3576C33.6902 16.8581 35.0644 20.2663 34.9999 23.7999C35.0102 28.0893 33.0426 32.1439 29.6666 34.7899L29.6631 34.7941C28.8395 35.4438 27.9456 35.9992 26.9982 36.4496C26.7663 36.5532 26.6087 36.7743 26.5864 37.0273C26.5641 37.2803 26.6806 37.5256 26.8908 37.6681C27.101 37.8107 27.372 37.8281 27.5988 37.7138C28.2211 37.4171 28.8229 37.0789 29.3999 36.7016V39.8999C29.3999 40.2865 29.0865 40.5999 28.6999 40.5999H13.2999C12.9133 40.5999 12.5999 40.2865 12.5999 39.8999V36.7023C13.1762 37.0809 13.7775 37.42 14.3996 37.7173C14.7467 37.8723 15.1542 37.722 15.3173 37.3785C15.4805 37.0351 15.3397 36.6243 15.0002 36.4531C14.0545 36.0031 13.1623 35.4485 12.3402 34.7997L12.3346 34.7934C8.95713 32.1469 6.98884 28.0907 6.9999 23.7999Z" fill="white"/>
<path d="M20.9907 36.4C21.224 36.4 21.4585 36.3937 21.6942 36.3811C25.9091 36.1483 29.7274 33.8203 31.8649 30.1801C34.0023 26.5399 34.1748 22.0712 32.3244 18.277C32.0857 17.8004 31.5981 17.4995 31.0651 17.5H10.9352C10.4017 17.4996 9.9139 17.8007 9.67517 18.2777C7.77555 22.1814 8.01827 26.7879 10.3176 30.4704C12.6169 34.1529 16.6493 36.3931 20.9907 36.4ZM10.9352 18.9H31.0714C32.713 22.2716 32.5578 26.2411 30.6579 29.4742C28.758 32.7073 25.3657 34.7746 21.6214 34.9811C17.6559 35.2051 13.8689 33.3103 11.6707 30.0024C9.47248 26.6944 9.19255 22.469 10.9352 18.9Z" fill="white"/>
<path d="M20.3002 31.4998C21.46 31.4998 22.4002 30.5596 22.4002 29.3998C22.4002 28.24 21.46 27.2998 20.3002 27.2998C19.1404 27.2998 18.2002 28.24 18.2002 29.3998C18.2002 30.5596 19.1404 31.4998 20.3002 31.4998ZM20.3002 28.6998C20.6868 28.6998 21.0002 29.0132 21.0002 29.3998C21.0002 29.7864 20.6868 30.0998 20.3002 30.0998C19.9136 30.0998 19.6002 29.7864 19.6002 29.3998C19.6002 29.0132 19.9136 28.6998 20.3002 28.6998Z" fill="white"/>
<path d="M27.9994 29.3997C29.1592 29.3997 30.0994 28.4595 30.0994 27.2997C30.0994 26.1399 29.1592 25.1997 27.9994 25.1997C26.8396 25.1997 25.8994 26.1399 25.8994 27.2997C25.8994 28.4595 26.8396 29.3997 27.9994 29.3997ZM27.9994 26.5997C28.386 26.5997 28.6994 26.9131 28.6994 27.2997C28.6994 27.6863 28.386 27.9997 27.9994 27.9997C27.6128 27.9997 27.2994 27.6863 27.2994 27.2997C27.2994 26.9131 27.6128 26.5997 27.9994 26.5997Z" fill="white"/>
<path d="M29.4002 23.7994C29.7868 23.7994 30.1002 23.486 30.1002 23.0994C30.1002 22.7128 29.7868 22.3994 29.4002 22.3994C29.0136 22.3994 28.7002 22.7128 28.7002 23.0994C28.7002 23.486 29.0136 23.7994 29.4002 23.7994Z" fill="white"/>
<path d="M24.4998 32.1995C24.8864 32.1995 25.1998 31.8861 25.1998 31.4995C25.1998 31.113 24.8864 30.7996 24.4998 30.7996C24.1132 30.7996 23.7998 31.113 23.7998 31.4995C23.7998 31.8861 24.1132 32.1995 24.4998 32.1995Z" fill="white"/>
<path d="M14.7 30.7999C15.0866 30.7999 15.4 30.4865 15.4 30.0999C15.4 29.7133 15.0866 29.3999 14.7 29.3999C14.3134 29.3999 14 29.7133 14 30.0999C14 30.4865 14.3134 30.7999 14.7 30.7999Z" fill="white"/>
<path d="M16.7996 27.3001C17.1862 27.3001 17.4996 26.9867 17.4996 26.6001C17.4996 26.2135 17.1862 25.9001 16.7996 25.9001C16.413 25.9001 16.0996 26.2135 16.0996 26.6001C16.0996 26.9867 16.413 27.3001 16.7996 27.3001Z" fill="white"/>
<path d="M12.6004 27.3001C12.987 27.3001 13.3004 26.9867 13.3004 26.6001C13.3004 26.2135 12.987 25.9001 12.6004 25.9001C12.2138 25.9001 11.9004 26.2135 11.9004 26.6001C11.9004 26.9867 12.2138 27.3001 12.6004 27.3001Z" fill="white"/>
<path d="M23.0998 25.8996C24.6462 25.8996 25.8998 24.646 25.8998 23.0996C25.8998 21.5532 24.6462 20.2996 23.0998 20.2996C21.5534 20.2996 20.2998 21.5532 20.2998 23.0996C20.2998 24.646 21.5534 25.8996 23.0998 25.8996ZM23.0998 21.6996C23.873 21.6996 24.4998 22.3264 24.4998 23.0996C24.4998 23.8728 23.873 24.4996 23.0998 24.4996C22.3266 24.4996 21.6998 23.8728 21.6998 23.0996C21.6998 22.3264 22.3266 21.6996 23.0998 21.6996Z" fill="white"/>
<path d="M14.6996 24.4995C15.8594 24.4995 16.7996 23.5593 16.7996 22.3996C16.7996 21.2398 15.8594 20.2996 14.6996 20.2996C13.5398 20.2996 12.5996 21.2398 12.5996 22.3996C12.5996 23.5593 13.5398 24.4995 14.6996 24.4995ZM14.6996 21.6996C15.0862 21.6996 15.3996 22.013 15.3996 22.3996C15.3996 22.7861 15.0862 23.0995 14.6996 23.0995C14.313 23.0995 13.9996 22.7861 13.9996 22.3996C13.9996 22.013 14.313 21.6996 14.6996 21.6996Z" fill="white"/>
</g>
<defs>
<clipPath id="clip0_239_345">
<rect width="42" height="42" fill="white"/>
</clipPath>
</defs>
</svg>
