<svg width="58" height="58" viewBox="0 0 58 58" fill="none" xmlns="http://www.w3.org/2000/svg">
<g clip-path="url(#clip0_239_314)">
<path d="M39.0282 7.79477V2.45048C39.0282 1.6494 38.3788 1 37.5777 1H33.2263C32.4252 1 31.7758 1.6494 31.7758 2.45048V3.30191L25.3074 4.48115C24.5682 4.61524 23.8889 4.97531 23.363 5.51171L18.6315 10.3657C18.2088 10.7907 17.9807 11.3716 18.0013 11.9707C18.0219 12.5697 18.2894 13.1336 18.7403 13.5285C19.1275 13.87 19.6267 14.0571 20.1429 14.0543C20.6005 14.0531 21.0471 13.9146 21.4252 13.6569L26.0885 10.5006L26.0979 10.5253C26.6042 11.7877 27.9179 12.5305 29.2607 12.3137L31.3 11.9794C31.5941 11.9305 31.8949 11.9411 32.1848 12.0106L33.2865 12.2898C34.2292 12.5109 35.2168 12.4414 36.1192 12.0904C37.8824 11.396 39.0379 9.68972 39.0282 7.79477ZM37.5777 7.79477C37.5838 9.09361 36.7922 10.2631 35.584 10.74C34.9605 10.9783 34.2803 11.0263 33.6295 10.8778L32.5329 10.6C32.0521 10.4828 31.5525 10.4643 31.0643 10.5456L29.0242 10.8799C28.3729 10.9849 27.7328 10.6371 27.4664 10.0336L30.268 9.23582C31.0307 9.01363 31.7256 8.60398 32.2893 8.04425C32.4776 7.86203 32.5531 7.59233 32.4865 7.33881C32.42 7.0853 32.2218 6.88742 31.9682 6.82123C31.7146 6.75503 31.445 6.83083 31.263 7.01949C30.8737 7.40647 30.3934 7.68951 29.8662 7.84263L26.2915 8.85797C25.971 8.93572 25.6639 9.06113 25.3806 9.23002L20.6122 12.4588C20.3405 12.6598 19.9681 12.6548 19.702 12.4465C19.5451 12.3109 19.4525 12.1156 19.4467 11.9083C19.4406 11.7156 19.5149 11.529 19.652 11.3934L19.6621 11.3825L24.3957 6.52342C24.7123 6.1999 25.1216 5.98271 25.567 5.90189L32.0354 4.72628C32.724 4.601 33.225 4.00183 33.2263 3.30191V2.45048H37.5777V7.79477Z" fill="white"/>
<path d="M50.2599 40.0282L55.6042 40.0282C56.4053 40.0282 57.0547 39.3788 57.0547 38.5777L57.0547 34.2263C57.0547 33.4252 56.4053 32.7758 55.6042 32.7758L54.7528 32.7758L53.5735 26.3074C53.4394 25.5682 53.0794 24.8889 52.543 24.363L47.6889 19.6315C47.264 19.2088 46.6831 18.9807 46.084 19.0013C45.4849 19.0219 44.9211 19.2894 44.5262 19.7403C44.1847 20.1275 43.9976 20.6267 44.0004 21.1429C44.0016 21.6005 44.1401 22.0471 44.3978 22.4252L47.5541 27.0885L47.5294 27.0979C46.267 27.6042 45.5241 28.9179 45.741 30.2607L46.0753 32.3C46.1242 32.5941 46.1136 32.8949 46.0441 33.1848L45.7649 34.2865C45.5438 35.2292 45.6133 36.2168 45.9643 37.1192C46.6587 38.8824 48.365 40.0379 50.2599 40.0282ZM50.2599 38.5777C48.9611 38.5838 47.7916 37.7922 47.3147 36.584C47.0764 35.9605 47.0284 35.2803 47.1769 34.6295L47.4547 33.5329C47.5719 33.0521 47.5904 32.5525 47.5091 32.0643L47.1748 30.0242C47.0698 29.3729 47.4175 28.7328 48.0211 28.4664L48.8189 31.268C49.0411 32.0307 49.4507 32.7256 50.0104 33.2893C50.1927 33.4776 50.4624 33.5531 50.7159 33.4865C50.9694 33.42 51.1673 33.2218 51.2335 32.9682C51.2997 32.7146 51.2239 32.445 51.0352 32.263C50.6482 31.8737 50.3652 31.3934 50.2121 30.8662L49.1967 27.2915C49.119 26.971 48.9936 26.6639 48.8247 26.3806L45.5959 21.6122C45.3949 21.3405 45.3999 20.9681 45.6082 20.702C45.7438 20.5451 45.9391 20.4525 46.1464 20.4467C46.3391 20.4406 46.5256 20.5149 46.6613 20.652L46.6722 20.6621L51.5313 25.3957C51.8548 25.7123 52.072 26.1216 52.1528 26.567L53.3284 33.0354C53.4537 33.724 54.0529 34.225 54.7528 34.2263L55.6042 34.2263L55.6042 38.5777L50.2599 38.5777Z" fill="white"/>
<path d="M20.0001 51.2594L20.0001 56.6037C20.0001 57.4048 20.6495 58.0542 21.4506 58.0542L25.8021 58.0542C26.6031 58.0542 27.2525 57.4048 27.2525 56.6037L27.2525 55.7523L33.7209 54.573C34.4601 54.439 35.1394 54.0789 35.6653 53.5425L40.3968 48.6885C40.8195 48.2635 41.0476 47.6826 41.027 47.0835C41.0064 46.4845 40.7389 45.9206 40.288 45.5257C39.9008 45.1842 39.4016 44.9971 38.8854 44.9999C38.4278 45.0011 37.9812 45.1396 37.6032 45.3973L32.9399 48.5536L32.9304 48.5289C32.4241 47.2665 31.1104 46.5237 29.7677 46.7405L27.7283 47.0748C27.4342 47.1237 27.1334 47.1131 26.8435 47.0436L25.7419 46.7644C24.7991 46.5433 23.8115 46.6128 22.9091 46.9638C21.1459 47.6582 19.9905 49.3645 20.0001 51.2594ZM21.4506 51.2594C21.4445 49.9606 22.2362 48.7911 23.4443 48.3142C24.0678 48.0759 24.748 48.0279 25.3988 48.1764L26.4954 48.4542C26.9762 48.5714 27.4758 48.5899 27.964 48.5086L30.0041 48.1743C30.6554 48.0693 31.2955 48.4171 31.5619 49.0206L28.7603 49.8184C27.9976 50.0406 27.3028 50.4502 26.7391 51.0099C26.5507 51.1922 26.4753 51.4619 26.5418 51.7154C26.6084 51.9689 26.8065 52.1668 27.0601 52.233C27.3137 52.2992 27.5833 52.2234 27.7653 52.0347C28.1546 51.6477 28.6349 51.3647 29.1621 51.2116L32.7368 50.1962C33.0573 50.1185 33.3644 49.9931 33.6477 49.8242L38.4161 46.5954C38.6878 46.3944 39.0602 46.3994 39.3263 46.6077C39.4832 46.7433 39.5759 46.9386 39.5816 47.1459C39.5878 47.3386 39.5134 47.5252 39.3764 47.6608L39.3662 47.6717L34.6326 52.5308C34.316 52.8543 33.9067 53.0715 33.4613 53.1523L26.9929 54.3279C26.3043 54.4532 25.8034 55.0524 25.8021 55.7523L25.8021 56.6037L21.4506 56.6037L21.4506 51.2594Z" fill="white"/>
<path d="M6.79477 20.0001L1.45048 20.0001C0.649401 20.0001 -8.90785e-07 20.6495 -8.55768e-07 21.4506L-6.65561e-07 25.8021C-6.30545e-07 26.6031 0.649401 27.2525 1.45048 27.2525L2.30191 27.2525L3.48115 33.7209C3.61524 34.4601 3.97531 35.1394 4.51171 35.6653L9.36574 40.3968C9.7907 40.8195 10.3716 41.0476 10.9707 41.027C11.5697 41.0064 12.1336 40.7389 12.5285 40.288C12.87 39.9008 13.0571 39.4016 13.0543 38.8854C13.0531 38.4278 12.9146 37.9812 12.6569 37.6032L9.50064 32.9399L9.52529 32.9304C10.7877 32.4241 11.5305 31.1104 11.3137 29.7677L10.9794 27.7283C10.9305 27.4342 10.9411 27.1334 11.0106 26.8435L11.2898 25.7419C11.5109 24.7991 11.4414 23.8115 11.0904 22.9091C10.396 21.1459 8.68972 19.9905 6.79477 20.0001ZM6.79477 21.4506C8.09361 21.4445 9.26307 22.2362 9.73996 23.4443C9.97832 24.0678 10.0263 24.748 9.87776 25.3988L9.59999 26.4954C9.4828 26.9762 9.4643 27.4758 9.5456 27.964L9.87994 30.0041C9.98492 30.6554 9.63714 31.2955 9.03358 31.5619L8.23582 28.7603C8.01363 27.9976 7.60398 27.3028 7.04425 26.7391C6.86203 26.5507 6.59233 26.4753 6.33881 26.5418C6.0853 26.6084 5.88742 26.8065 5.82123 27.0601C5.75503 27.3137 5.83083 27.5833 6.01949 27.7653C6.40647 28.1546 6.68951 28.6349 6.84263 29.1621L7.85797 32.7368C7.93572 33.0573 8.06113 33.3644 8.23002 33.6477L11.4588 38.4161C11.6598 38.6878 11.6548 39.0602 11.4465 39.3263C11.3109 39.4832 11.1156 39.5759 10.9083 39.5816C10.7156 39.5878 10.529 39.5134 10.3934 39.3764L10.3825 39.3662L5.52342 34.6326C5.1999 34.316 4.98271 33.9067 4.90189 33.4613L3.72628 26.9929C3.60099 26.3043 3.00183 25.8034 2.30191 25.8021L1.45048 25.8021L1.45048 21.4506L6.79477 21.4506Z" fill="white"/>
<mask id="path-5-outside-1_239_314" maskUnits="userSpaceOnUse" x="13.332" y="14.332" width="30" height="30" fill="black">
<rect fill="white" x="13.332" y="14.332" width="30" height="30"/>
<path d="M42.0598 24.5574C39.9421 19.0002 34.6114 15.329 28.6643 15.3321C27.3416 15.3296 26.0251 15.5119 24.7528 15.8735L24.7336 15.8793C21.2025 16.8777 18.1924 19.1996 16.3303 22.3616C16.2974 22.4172 16.276 22.479 16.2676 22.5432C16.0387 22.8486 15.8488 23.1813 15.7022 23.5336L15.6662 23.6112C13.6045 28.0519 13.9495 33.2373 16.5813 37.3658C19.2131 41.4942 23.7684 43.9957 28.6643 44.001C31.9556 44.0039 35.1467 42.8686 37.6968 40.7877C37.9034 40.8054 38.0975 40.6868 38.1759 40.4949C38.1909 40.4506 38.1995 40.4045 38.2013 40.3579C42.6421 36.4024 44.1777 30.1146 42.0598 24.5574ZM24.6833 16.8947C25.3169 17.6717 26.2503 18.1433 27.2517 18.1923C27.5255 18.1994 27.7995 18.1874 28.0716 18.1563C28.5118 18.0566 28.9729 18.1114 29.3774 18.3116C29.6038 18.4327 29.7288 18.6838 29.6888 18.9374C29.5849 19.1285 29.4422 19.2957 29.2701 19.4286C28.8418 19.7191 28.5838 20.2016 28.58 20.719C28.6124 21.0412 28.7849 21.3327 29.0516 21.5163C29.4458 21.7797 29.9317 21.8677 30.3932 21.7593C30.649 21.6923 30.8981 21.6021 31.1374 21.4899C31.355 21.3829 31.5852 21.3039 31.8226 21.2547C32.4292 21.1694 33.0522 21.5704 33.688 22.0266C34.0067 22.2571 34.5256 22.6926 34.4183 23.0233C34.3359 23.2767 34.0264 23.4598 33.6995 23.6543C33.5673 23.7324 33.4379 23.8091 33.2884 23.9131C32.7591 24.3138 32.179 24.6427 31.5634 24.8911C31.3307 24.9685 31.0937 25.0325 30.8537 25.0828C30.3538 25.1702 29.8735 25.3455 29.4349 25.6008C28.5546 26.1691 28.662 27.0786 28.7295 27.6253C28.7137 27.62 28.6964 27.6138 28.6777 27.6056C28.5958 27.5721 28.5153 27.5337 28.4353 27.4963C27.9398 27.1621 27.2979 27.1364 26.7773 27.43C26.2566 27.7236 25.9465 28.2861 25.9762 28.8831C25.9762 30.0202 26.8205 30.6834 27.499 31.2157L27.7347 31.4026C27.8845 31.5402 28.0192 31.6932 28.1367 31.8592C27.1736 31.6168 26.2098 31.3783 25.2454 31.1438C24.4346 30.9479 23.6162 30.7063 23.2807 30.1064C23.1525 29.8346 23.0661 29.5449 23.0244 29.2473C22.9636 28.7749 22.7976 28.3224 22.5385 27.9228C22.0467 27.3739 21.384 27.0072 20.6578 26.8821L20.57 26.8571C19.8513 26.6434 19.4574 26.3861 19.329 26.0493C19.2489 25.6121 19.3202 25.1606 19.5312 24.7694C19.8021 24.2059 19.8924 23.5724 19.79 22.9557C19.6824 22.4827 19.3663 22.0839 18.9303 21.8713C18.6713 21.7507 18.3885 21.6899 18.1028 21.6935C18.0419 21.6935 17.9801 21.6964 17.9178 21.7012C19.6009 19.4168 21.9721 17.7321 24.6833 16.8947ZM26.6508 42.8871L26.6552 42.8914C26.4672 42.7871 26.2848 42.6729 26.1089 42.5493C25.7216 42.308 25.4567 41.9117 25.382 41.4615C25.4087 41.1725 25.5022 40.8936 25.6551 40.6469C25.7622 40.4188 25.8414 40.1786 25.8909 39.9315C25.9213 39.7072 26.0033 39.493 26.1305 39.3057C26.2721 39.1765 26.4363 39.0745 26.6149 39.0047C26.8149 38.9162 27.005 38.807 27.1822 38.6789C27.5646 38.3744 27.8817 37.9959 28.1147 37.5663C28.2273 37.3688 28.3246 37.1537 28.4185 36.9434C28.546 36.6098 28.7237 36.2978 28.9456 36.0181C29.4248 35.5135 30.3688 35.8882 30.7512 36.0712C31.4808 36.3989 32.1516 36.8442 32.7369 37.3894L32.7919 37.446C33.412 38.1013 34.0718 38.718 34.7676 39.2922C35.3432 39.7369 35.9739 40.1053 36.6441 40.3881C33.7809 42.5233 30.182 43.4232 26.6508 42.8871ZM37.4907 39.7063C36.7308 39.4251 36.0162 39.0343 35.3694 38.5462C34.7043 37.9957 34.0734 37.4053 33.48 36.778L33.425 36.722C32.7643 36.096 32.0029 35.5857 31.1728 35.2126C29.9605 34.6309 28.8977 34.6855 28.2551 35.363C27.9556 35.7177 27.717 36.1199 27.5493 36.5528C27.4635 36.7416 27.3802 36.928 27.2877 37.0909C27.1172 37.4095 26.8851 37.691 26.6048 37.919C26.4789 38.0067 26.3446 38.0816 26.2038 38.1427C25.9119 38.2626 25.6468 38.4394 25.4242 38.6631C25.1815 38.9662 25.0218 39.3271 24.9608 39.7106C24.9274 39.882 24.8752 40.0491 24.8051 40.209C24.5768 40.5901 24.4461 41.0216 24.4246 41.4653C24.4317 41.8134 24.5334 42.153 24.7188 42.4476C21.028 41.3034 18.0112 38.6211 16.4432 35.0896C14.8751 31.558 14.9085 27.5213 16.5349 24.0162L16.5714 23.9371C16.7014 23.5936 16.8956 23.278 17.1435 23.007C17.2316 22.9192 17.3355 22.8486 17.4497 22.7991C17.6564 22.7066 17.8798 22.6577 18.1062 22.6554C18.2461 22.6521 18.3851 22.6799 18.513 22.7368C18.694 22.8281 18.8224 22.9979 18.8609 23.1968C18.9029 23.6256 18.8231 24.0574 18.6304 24.4427C18.3246 25.0457 18.2541 25.7409 18.4326 26.393C18.7541 27.233 19.6501 27.5857 20.3013 27.7792L20.3972 27.8061C20.915 27.8891 21.3947 28.1295 21.771 28.4946C21.941 28.7833 22.049 29.1043 22.0878 29.4372C22.1467 29.8334 22.268 30.2179 22.4471 30.5762C22.9704 31.5139 24.0519 31.8431 25.0237 32.0779C26.0664 32.3312 27.11 32.5897 28.1546 32.8532C28.3646 32.9217 28.5914 32.9188 28.7996 32.8451C29.0425 32.7507 29.2164 32.5338 29.2558 32.2763C29.3651 31.5503 28.3621 30.6773 28.3454 30.6648L28.0933 30.4645C27.4986 29.9978 26.937 29.5569 26.937 28.8832C26.9314 28.6002 27.0944 28.3409 27.352 28.2234C27.5308 28.1491 27.6802 28.2033 28.0286 28.3672C28.1245 28.4122 28.2203 28.4572 28.308 28.4927C28.6803 28.6924 29.1382 28.6347 29.4494 28.349C29.6518 28.123 29.7372 27.8156 29.6803 27.5176C29.6018 26.8789 29.6324 26.6148 29.9544 26.4064C30.3021 26.2153 30.6796 26.0842 31.0709 26.0187C31.3466 25.9597 31.6186 25.8847 31.8855 25.794C32.5924 25.5119 33.2583 25.1364 33.8655 24.6775C33.9613 24.6099 34.072 24.5457 34.1832 24.4801C34.696 24.2502 35.1042 23.8364 35.327 23.3204C35.5527 22.6276 35.189 21.9308 34.245 21.2499C33.6388 20.8153 32.7198 20.1583 31.6819 20.3074C31.3599 20.3665 31.0473 20.469 30.7528 20.6121C30.5651 20.7006 30.3702 20.7728 30.1701 20.8277C29.978 20.8721 29.7762 20.8403 29.607 20.7391C29.5366 20.6882 29.5327 20.6485 29.5313 20.6337C29.5208 20.5091 29.6751 20.3553 29.9147 20.1343C30.2099 19.9024 30.4423 19.6003 30.5908 19.2555C30.7879 18.5778 30.497 17.8531 29.8859 17.4999C29.3057 17.1807 28.6317 17.0754 27.9817 17.2023C27.7537 17.2291 27.5241 17.24 27.2946 17.2349C26.7218 17.2038 26.1751 16.9849 25.7392 16.612C31.7036 15.2684 37.8194 18.1421 40.5921 23.591C43.3647 29.04 42.0877 35.6756 37.4907 39.7063Z"/>
</mask>
<path d="M42.0598 24.5574C39.9421 19.0002 34.6114 15.329 28.6643 15.3321C27.3416 15.3296 26.0251 15.5119 24.7528 15.8735L24.7336 15.8793C21.2025 16.8777 18.1924 19.1996 16.3303 22.3616C16.2974 22.4172 16.276 22.479 16.2676 22.5432C16.0387 22.8486 15.8488 23.1813 15.7022 23.5336L15.6662 23.6112C13.6045 28.0519 13.9495 33.2373 16.5813 37.3658C19.2131 41.4942 23.7684 43.9957 28.6643 44.001C31.9556 44.0039 35.1467 42.8686 37.6968 40.7877C37.9034 40.8054 38.0975 40.6868 38.1759 40.4949C38.1909 40.4506 38.1995 40.4045 38.2013 40.3579C42.6421 36.4024 44.1777 30.1146 42.0598 24.5574ZM24.6833 16.8947C25.3169 17.6717 26.2503 18.1433 27.2517 18.1923C27.5255 18.1994 27.7995 18.1874 28.0716 18.1563C28.5118 18.0566 28.9729 18.1114 29.3774 18.3116C29.6038 18.4327 29.7288 18.6838 29.6888 18.9374C29.5849 19.1285 29.4422 19.2957 29.2701 19.4286C28.8418 19.7191 28.5838 20.2016 28.58 20.719C28.6124 21.0412 28.7849 21.3327 29.0516 21.5163C29.4458 21.7797 29.9317 21.8677 30.3932 21.7593C30.649 21.6923 30.8981 21.6021 31.1374 21.4899C31.355 21.3829 31.5852 21.3039 31.8226 21.2547C32.4292 21.1694 33.0522 21.5704 33.688 22.0266C34.0067 22.2571 34.5256 22.6926 34.4183 23.0233C34.3359 23.2767 34.0264 23.4598 33.6995 23.6543C33.5673 23.7324 33.4379 23.8091 33.2884 23.9131C32.7591 24.3138 32.179 24.6427 31.5634 24.8911C31.3307 24.9685 31.0937 25.0325 30.8537 25.0828C30.3538 25.1702 29.8735 25.3455 29.4349 25.6008C28.5546 26.1691 28.662 27.0786 28.7295 27.6253C28.7137 27.62 28.6964 27.6138 28.6777 27.6056C28.5958 27.5721 28.5153 27.5337 28.4353 27.4963C27.9398 27.1621 27.2979 27.1364 26.7773 27.43C26.2566 27.7236 25.9465 28.2861 25.9762 28.8831C25.9762 30.0202 26.8205 30.6834 27.499 31.2157L27.7347 31.4026C27.8845 31.5402 28.0192 31.6932 28.1367 31.8592C27.1736 31.6168 26.2098 31.3783 25.2454 31.1438C24.4346 30.9479 23.6162 30.7063 23.2807 30.1064C23.1525 29.8346 23.0661 29.5449 23.0244 29.2473C22.9636 28.7749 22.7976 28.3224 22.5385 27.9228C22.0467 27.3739 21.384 27.0072 20.6578 26.8821L20.57 26.8571C19.8513 26.6434 19.4574 26.3861 19.329 26.0493C19.2489 25.6121 19.3202 25.1606 19.5312 24.7694C19.8021 24.2059 19.8924 23.5724 19.79 22.9557C19.6824 22.4827 19.3663 22.0839 18.9303 21.8713C18.6713 21.7507 18.3885 21.6899 18.1028 21.6935C18.0419 21.6935 17.9801 21.6964 17.9178 21.7012C19.6009 19.4168 21.9721 17.7321 24.6833 16.8947ZM26.6508 42.8871L26.6552 42.8914C26.4672 42.7871 26.2848 42.6729 26.1089 42.5493C25.7216 42.308 25.4567 41.9117 25.382 41.4615C25.4087 41.1725 25.5022 40.8936 25.6551 40.6469C25.7622 40.4188 25.8414 40.1786 25.8909 39.9315C25.9213 39.7072 26.0033 39.493 26.1305 39.3057C26.2721 39.1765 26.4363 39.0745 26.6149 39.0047C26.8149 38.9162 27.005 38.807 27.1822 38.6789C27.5646 38.3744 27.8817 37.9959 28.1147 37.5663C28.2273 37.3688 28.3246 37.1537 28.4185 36.9434C28.546 36.6098 28.7237 36.2978 28.9456 36.0181C29.4248 35.5135 30.3688 35.8882 30.7512 36.0712C31.4808 36.3989 32.1516 36.8442 32.7369 37.3894L32.7919 37.446C33.412 38.1013 34.0718 38.718 34.7676 39.2922C35.3432 39.7369 35.9739 40.1053 36.6441 40.3881C33.7809 42.5233 30.182 43.4232 26.6508 42.8871ZM37.4907 39.7063C36.7308 39.4251 36.0162 39.0343 35.3694 38.5462C34.7043 37.9957 34.0734 37.4053 33.48 36.778L33.425 36.722C32.7643 36.096 32.0029 35.5857 31.1728 35.2126C29.9605 34.6309 28.8977 34.6855 28.2551 35.363C27.9556 35.7177 27.717 36.1199 27.5493 36.5528C27.4635 36.7416 27.3802 36.928 27.2877 37.0909C27.1172 37.4095 26.8851 37.691 26.6048 37.919C26.4789 38.0067 26.3446 38.0816 26.2038 38.1427C25.9119 38.2626 25.6468 38.4394 25.4242 38.6631C25.1815 38.9662 25.0218 39.3271 24.9608 39.7106C24.9274 39.882 24.8752 40.0491 24.8051 40.209C24.5768 40.5901 24.4461 41.0216 24.4246 41.4653C24.4317 41.8134 24.5334 42.153 24.7188 42.4476C21.028 41.3034 18.0112 38.6211 16.4432 35.0896C14.8751 31.558 14.9085 27.5213 16.5349 24.0162L16.5714 23.9371C16.7014 23.5936 16.8956 23.278 17.1435 23.007C17.2316 22.9192 17.3355 22.8486 17.4497 22.7991C17.6564 22.7066 17.8798 22.6577 18.1062 22.6554C18.2461 22.6521 18.3851 22.6799 18.513 22.7368C18.694 22.8281 18.8224 22.9979 18.8609 23.1968C18.9029 23.6256 18.8231 24.0574 18.6304 24.4427C18.3246 25.0457 18.2541 25.7409 18.4326 26.393C18.7541 27.233 19.6501 27.5857 20.3013 27.7792L20.3972 27.8061C20.915 27.8891 21.3947 28.1295 21.771 28.4946C21.941 28.7833 22.049 29.1043 22.0878 29.4372C22.1467 29.8334 22.268 30.2179 22.4471 30.5762C22.9704 31.5139 24.0519 31.8431 25.0237 32.0779C26.0664 32.3312 27.11 32.5897 28.1546 32.8532C28.3646 32.9217 28.5914 32.9188 28.7996 32.8451C29.0425 32.7507 29.2164 32.5338 29.2558 32.2763C29.3651 31.5503 28.3621 30.6773 28.3454 30.6648L28.0933 30.4645C27.4986 29.9978 26.937 29.5569 26.937 28.8832C26.9314 28.6002 27.0944 28.3409 27.352 28.2234C27.5308 28.1491 27.6802 28.2033 28.0286 28.3672C28.1245 28.4122 28.2203 28.4572 28.308 28.4927C28.6803 28.6924 29.1382 28.6347 29.4494 28.349C29.6518 28.123 29.7372 27.8156 29.6803 27.5176C29.6018 26.8789 29.6324 26.6148 29.9544 26.4064C30.3021 26.2153 30.6796 26.0842 31.0709 26.0187C31.3466 25.9597 31.6186 25.8847 31.8855 25.794C32.5924 25.5119 33.2583 25.1364 33.8655 24.6775C33.9613 24.6099 34.072 24.5457 34.1832 24.4801C34.696 24.2502 35.1042 23.8364 35.327 23.3204C35.5527 22.6276 35.189 21.9308 34.245 21.2499C33.6388 20.8153 32.7198 20.1583 31.6819 20.3074C31.3599 20.3665 31.0473 20.469 30.7528 20.6121C30.5651 20.7006 30.3702 20.7728 30.1701 20.8277C29.978 20.8721 29.7762 20.8403 29.607 20.7391C29.5366 20.6882 29.5327 20.6485 29.5313 20.6337C29.5208 20.5091 29.6751 20.3553 29.9147 20.1343C30.2099 19.9024 30.4423 19.6003 30.5908 19.2555C30.7879 18.5778 30.497 17.8531 29.8859 17.4999C29.3057 17.1807 28.6317 17.0754 27.9817 17.2023C27.7537 17.2291 27.5241 17.24 27.2946 17.2349C26.7218 17.2038 26.1751 16.9849 25.7392 16.612C31.7036 15.2684 37.8194 18.1421 40.5921 23.591C43.3647 29.04 42.0877 35.6756 37.4907 39.7063Z" fill="white"/>
<path d="M42.0598 24.5574C39.9421 19.0002 34.6114 15.329 28.6643 15.3321C27.3416 15.3296 26.0251 15.5119 24.7528 15.8735L24.7336 15.8793C21.2025 16.8777 18.1924 19.1996 16.3303 22.3616C16.2974 22.4172 16.276 22.479 16.2676 22.5432C16.0387 22.8486 15.8488 23.1813 15.7022 23.5336L15.6662 23.6112C13.6045 28.0519 13.9495 33.2373 16.5813 37.3658C19.2131 41.4942 23.7684 43.9957 28.6643 44.001C31.9556 44.0039 35.1467 42.8686 37.6968 40.7877C37.9034 40.8054 38.0975 40.6868 38.1759 40.4949C38.1909 40.4506 38.1995 40.4045 38.2013 40.3579C42.6421 36.4024 44.1777 30.1146 42.0598 24.5574ZM24.6833 16.8947C25.3169 17.6717 26.2503 18.1433 27.2517 18.1923C27.5255 18.1994 27.7995 18.1874 28.0716 18.1563C28.5118 18.0566 28.9729 18.1114 29.3774 18.3116C29.6038 18.4327 29.7288 18.6838 29.6888 18.9374C29.5849 19.1285 29.4422 19.2957 29.2701 19.4286C28.8418 19.7191 28.5838 20.2016 28.58 20.719C28.6124 21.0412 28.7849 21.3327 29.0516 21.5163C29.4458 21.7797 29.9317 21.8677 30.3932 21.7593C30.649 21.6923 30.8981 21.6021 31.1374 21.4899C31.355 21.3829 31.5852 21.3039 31.8226 21.2547C32.4292 21.1694 33.0522 21.5704 33.688 22.0266C34.0067 22.2571 34.5256 22.6926 34.4183 23.0233C34.3359 23.2767 34.0264 23.4598 33.6995 23.6543C33.5673 23.7324 33.4379 23.8091 33.2884 23.9131C32.7591 24.3138 32.179 24.6427 31.5634 24.8911C31.3307 24.9685 31.0937 25.0325 30.8537 25.0828C30.3538 25.1702 29.8735 25.3455 29.4349 25.6008C28.5546 26.1691 28.662 27.0786 28.7295 27.6253C28.7137 27.62 28.6964 27.6138 28.6777 27.6056C28.5958 27.5721 28.5153 27.5337 28.4353 27.4963C27.9398 27.1621 27.2979 27.1364 26.7773 27.43C26.2566 27.7236 25.9465 28.2861 25.9762 28.8831C25.9762 30.0202 26.8205 30.6834 27.499 31.2157L27.7347 31.4026C27.8845 31.5402 28.0192 31.6932 28.1367 31.8592C27.1736 31.6168 26.2098 31.3783 25.2454 31.1438C24.4346 30.9479 23.6162 30.7063 23.2807 30.1064C23.1525 29.8346 23.0661 29.5449 23.0244 29.2473C22.9636 28.7749 22.7976 28.3224 22.5385 27.9228C22.0467 27.3739 21.384 27.0072 20.6578 26.8821L20.57 26.8571C19.8513 26.6434 19.4574 26.3861 19.329 26.0493C19.2489 25.6121 19.3202 25.1606 19.5312 24.7694C19.8021 24.2059 19.8924 23.5724 19.79 22.9557C19.6824 22.4827 19.3663 22.0839 18.9303 21.8713C18.6713 21.7507 18.3885 21.6899 18.1028 21.6935C18.0419 21.6935 17.9801 21.6964 17.9178 21.7012C19.6009 19.4168 21.9721 17.7321 24.6833 16.8947ZM26.6508 42.8871L26.6552 42.8914C26.4672 42.7871 26.2848 42.6729 26.1089 42.5493C25.7216 42.308 25.4567 41.9117 25.382 41.4615C25.4087 41.1725 25.5022 40.8936 25.6551 40.6469C25.7622 40.4188 25.8414 40.1786 25.8909 39.9315C25.9213 39.7072 26.0033 39.493 26.1305 39.3057C26.2721 39.1765 26.4363 39.0745 26.6149 39.0047C26.8149 38.9162 27.005 38.807 27.1822 38.6789C27.5646 38.3744 27.8817 37.9959 28.1147 37.5663C28.2273 37.3688 28.3246 37.1537 28.4185 36.9434C28.546 36.6098 28.7237 36.2978 28.9456 36.0181C29.4248 35.5135 30.3688 35.8882 30.7512 36.0712C31.4808 36.3989 32.1516 36.8442 32.7369 37.3894L32.7919 37.446C33.412 38.1013 34.0718 38.718 34.7676 39.2922C35.3432 39.7369 35.9739 40.1053 36.6441 40.3881C33.7809 42.5233 30.182 43.4232 26.6508 42.8871ZM37.4907 39.7063C36.7308 39.4251 36.0162 39.0343 35.3694 38.5462C34.7043 37.9957 34.0734 37.4053 33.48 36.778L33.425 36.722C32.7643 36.096 32.0029 35.5857 31.1728 35.2126C29.9605 34.6309 28.8977 34.6855 28.2551 35.363C27.9556 35.7177 27.717 36.1199 27.5493 36.5528C27.4635 36.7416 27.3802 36.928 27.2877 37.0909C27.1172 37.4095 26.8851 37.691 26.6048 37.919C26.4789 38.0067 26.3446 38.0816 26.2038 38.1427C25.9119 38.2626 25.6468 38.4394 25.4242 38.6631C25.1815 38.9662 25.0218 39.3271 24.9608 39.7106C24.9274 39.882 24.8752 40.0491 24.8051 40.209C24.5768 40.5901 24.4461 41.0216 24.4246 41.4653C24.4317 41.8134 24.5334 42.153 24.7188 42.4476C21.028 41.3034 18.0112 38.6211 16.4432 35.0896C14.8751 31.558 14.9085 27.5213 16.5349 24.0162L16.5714 23.9371C16.7014 23.5936 16.8956 23.278 17.1435 23.007C17.2316 22.9192 17.3355 22.8486 17.4497 22.7991C17.6564 22.7066 17.8798 22.6577 18.1062 22.6554C18.2461 22.6521 18.3851 22.6799 18.513 22.7368C18.694 22.8281 18.8224 22.9979 18.8609 23.1968C18.9029 23.6256 18.8231 24.0574 18.6304 24.4427C18.3246 25.0457 18.2541 25.7409 18.4326 26.393C18.7541 27.233 19.6501 27.5857 20.3013 27.7792L20.3972 27.8061C20.915 27.8891 21.3947 28.1295 21.771 28.4946C21.941 28.7833 22.049 29.1043 22.0878 29.4372C22.1467 29.8334 22.268 30.2179 22.4471 30.5762C22.9704 31.5139 24.0519 31.8431 25.0237 32.0779C26.0664 32.3312 27.11 32.5897 28.1546 32.8532C28.3646 32.9217 28.5914 32.9188 28.7996 32.8451C29.0425 32.7507 29.2164 32.5338 29.2558 32.2763C29.3651 31.5503 28.3621 30.6773 28.3454 30.6648L28.0933 30.4645C27.4986 29.9978 26.937 29.5569 26.937 28.8832C26.9314 28.6002 27.0944 28.3409 27.352 28.2234C27.5308 28.1491 27.6802 28.2033 28.0286 28.3672C28.1245 28.4122 28.2203 28.4572 28.308 28.4927C28.6803 28.6924 29.1382 28.6347 29.4494 28.349C29.6518 28.123 29.7372 27.8156 29.6803 27.5176C29.6018 26.8789 29.6324 26.6148 29.9544 26.4064C30.3021 26.2153 30.6796 26.0842 31.0709 26.0187C31.3466 25.9597 31.6186 25.8847 31.8855 25.794C32.5924 25.5119 33.2583 25.1364 33.8655 24.6775C33.9613 24.6099 34.072 24.5457 34.1832 24.4801C34.696 24.2502 35.1042 23.8364 35.327 23.3204C35.5527 22.6276 35.189 21.9308 34.245 21.2499C33.6388 20.8153 32.7198 20.1583 31.6819 20.3074C31.3599 20.3665 31.0473 20.469 30.7528 20.6121C30.5651 20.7006 30.3702 20.7728 30.1701 20.8277C29.978 20.8721 29.7762 20.8403 29.607 20.7391C29.5366 20.6882 29.5327 20.6485 29.5313 20.6337C29.5208 20.5091 29.6751 20.3553 29.9147 20.1343C30.2099 19.9024 30.4423 19.6003 30.5908 19.2555C30.7879 18.5778 30.497 17.8531 29.8859 17.4999C29.3057 17.1807 28.6317 17.0754 27.9817 17.2023C27.7537 17.2291 27.5241 17.24 27.2946 17.2349C26.7218 17.2038 26.1751 16.9849 25.7392 16.612C31.7036 15.2684 37.8194 18.1421 40.5921 23.591C43.3647 29.04 42.0877 35.6756 37.4907 39.7063Z" stroke="white" stroke-width="0.6" mask="url(#path-5-outside-1_239_314)"/>
</g>
<defs>
<clipPath id="clip0_239_314">
<rect width="58" height="58" fill="white"/>
</clipPath>
</defs>
</svg>
