<svg width="42" height="42" viewBox="0 0 42 42" fill="none" xmlns="http://www.w3.org/2000/svg">
<g clip-path="url(#clip0_239_378)">
<path d="M20.9997 7.80963e-06C15.8573 -0.00443069 10.8931 1.8832 7.05288 5.30321C6.66295 5.6496 6.5864 6.2297 6.87311 6.66539C7.15982 7.10108 7.72288 7.26028 8.19528 7.03921C10.2307 6.08554 12.4519 5.59406 14.6997 5.60001C21.0075 5.60208 26.6764 9.45069 29.0059 15.3126C31.3355 21.1746 29.8547 27.8645 25.2689 32.1957C20.6832 36.527 13.9197 37.6237 8.20018 34.9636C7.72688 34.7407 7.16171 34.9003 6.87482 35.3377C6.58792 35.7752 6.66684 36.3571 7.05988 36.7024C10.8963 40.1233 15.8595 42.0095 20.9997 42C21.2426 42 21.4897 41.9958 21.7312 41.9867C32.4909 41.5446 41.2 33.0875 41.9577 22.3454C42.3497 16.5454 40.3014 10.8452 36.3073 6.62131C32.3316 2.40416 26.7954 0.00944996 20.9997 7.80963e-06ZM40.5605 22.26C40.106 29.3254 35.8764 35.5964 29.496 38.6651C23.1156 41.7337 15.5763 41.1229 9.77308 37.0671C11.482 37.5895 13.2631 37.8369 15.0497 37.8C21.6 37.6519 27.4665 33.7093 30.0779 27.7002C32.6893 21.6911 31.569 14.7122 27.2081 9.82234C22.8471 4.93251 16.0413 3.0241 9.77378 4.93361C15.9483 0.618662 24.0493 0.224095 30.6139 3.91858C37.1785 7.61306 41.045 14.7428 40.5605 22.26Z" fill="white"/>
<path d="M1.00182 20.3644C0.71033 20.7386 0.71033 21.2629 1.00182 21.637C1.90762 22.82 6.72012 28.7001 12.6001 28.7001C18.4801 28.7001 23.2926 22.8201 24.1984 21.6356C24.4897 21.262 24.4897 20.7381 24.1984 20.3644C23.2926 19.1835 18.4801 13.3 12.6001 13.3C6.72012 13.3 1.90762 19.1835 1.00182 20.3644ZM22.5555 21.441C21.0407 23.24 17.1207 27.3 12.6001 27.3C8.07952 27.3 4.15882 23.24 2.64472 21.441C3.94558 20.0863 5.54589 19.0554 7.31722 18.431C6.50293 20.7498 7.29553 23.3284 9.27159 24.7895C11.2477 26.2505 13.9454 26.2525 15.9236 24.7943C17.9018 23.3362 18.6981 20.7586 17.8872 18.4387C19.6536 19.0669 21.2512 20.0943 22.5555 21.441ZM8.40012 20.3C8.39728 19.426 8.67612 18.5742 9.19532 17.871C11.4392 17.375 13.7645 17.3764 16.0077 17.8752C16.525 18.5776 16.8028 19.4277 16.8001 20.3C16.8001 22.6196 14.9197 24.5 12.6001 24.5C10.2805 24.5 8.40012 22.6196 8.40012 20.3ZM12.6001 14.7C15.2517 14.7 17.694 16.1 19.5707 17.6218C17.3907 16.5982 15.0084 16.0781 12.6001 16.1C10.1919 16.0781 7.80951 16.5982 5.62952 17.6218C7.50622 16.1 9.94852 14.7 12.6001 14.7Z" fill="white"/>
<path d="M13.2994 11.1999V8.39995C13.2994 8.01335 12.986 7.69995 12.5994 7.69995C12.2128 7.69995 11.8994 8.01335 11.8994 8.39995V11.1999C11.8994 11.5865 12.2128 11.8999 12.5994 11.8999C12.986 11.8999 13.2994 11.5865 13.2994 11.1999Z" fill="white"/>
<path d="M8.39976 12.6001C8.62477 12.6002 8.83609 12.4921 8.9677 12.3096C9.09931 12.1271 9.13517 11.8924 9.06406 11.6789L8.36406 9.57894C8.2419 9.21167 7.84513 9.01297 7.47786 9.13514C7.11059 9.2573 6.9119 9.65407 7.03406 10.0213L7.73406 12.1213C7.82947 12.4078 8.09782 12.6008 8.39976 12.6001Z" fill="white"/>
<path d="M3.99489 12.1052C3.72023 11.8399 3.28363 11.8437 3.01362 12.1137C2.74361 12.3837 2.73981 12.8203 3.00509 13.095L4.40509 14.495C4.58084 14.677 4.84111 14.7499 5.08585 14.6859C5.33059 14.6218 5.52172 14.4307 5.58578 14.1859C5.64984 13.9412 5.57686 13.6809 5.39489 13.5052L3.99489 12.1052Z" fill="white"/>
<path d="M0.90493 17.2949C1.08068 17.4768 1.34094 17.5498 1.58569 17.4858C1.83043 17.4217 2.02156 17.2306 2.08562 16.9858C2.14968 16.7411 2.0767 16.4808 1.89473 16.3051L1.19473 15.6051C1.01898 15.4231 0.758716 15.3501 0.513975 15.4142C0.269234 15.4782 0.0781028 15.6694 0.014042 15.9141C-0.0500188 16.1589 0.0229604 16.4191 0.20493 16.5949L0.90493 17.2949Z" fill="white"/>
<path d="M16.8002 12.6001C17.1016 12.6002 17.3693 12.4073 17.4645 12.1213L18.1645 10.0213C18.2867 9.65407 18.088 9.2573 17.7207 9.13514C17.3534 9.01297 16.9567 9.21167 16.8345 9.57894L16.1345 11.6789C16.0633 11.8927 16.0993 12.1276 16.2313 12.3101C16.3632 12.4927 16.575 12.6006 16.8002 12.6001Z" fill="white"/>
<path d="M20.7943 14.495L22.1943 13.095C22.4596 12.8203 22.4558 12.3837 22.1858 12.1137C21.9158 11.8437 21.4792 11.8399 21.2045 12.1052L19.8045 13.5052C19.6226 13.6809 19.5496 13.9412 19.6137 14.1859C19.6777 14.4307 19.8688 14.6218 20.1136 14.6859C20.3583 14.7499 20.6186 14.677 20.7943 14.495Z" fill="white"/>
<path d="M24.9943 15.6051C24.721 15.3318 24.2779 15.3318 24.0045 15.6051L23.3045 16.3051C23.1226 16.4809 23.0496 16.7411 23.1137 16.9859C23.1777 17.2306 23.3688 17.4217 23.6136 17.4858C23.8583 17.5498 24.1186 17.4769 24.2943 17.2949L24.9943 16.5949C25.2676 16.3215 25.2676 15.8784 24.9943 15.6051Z" fill="white"/>
<path d="M11.8994 30.7999V33.5999C11.8994 33.9865 12.2128 34.2999 12.5994 34.2999C12.986 34.2999 13.2994 33.9865 13.2994 33.5999V30.7999C13.2994 30.4133 12.986 30.0999 12.5994 30.0999C12.2128 30.0999 11.8994 30.4133 11.8994 30.7999Z" fill="white"/>
<path d="M7.73601 29.8791L7.03601 31.9791C6.91385 32.3463 7.11255 32.7431 7.47981 32.8653C7.84708 32.9874 8.24385 32.7887 8.36602 32.4215L9.06602 30.3215C9.14504 30.0839 9.09132 29.8222 8.92508 29.6349C8.75884 29.4477 8.50534 29.3634 8.26008 29.4137C8.01481 29.4641 7.81504 29.6415 7.73601 29.8791Z" fill="white"/>
<path d="M4.40474 27.5053L3.00473 28.9053C2.82277 29.0811 2.74979 29.3413 2.81385 29.5861C2.87791 29.8308 3.06904 30.022 3.31378 30.086C3.55852 30.1501 3.81878 30.0771 3.99453 29.8951L5.39454 28.4951C5.65982 28.2205 5.65602 27.7839 5.38601 27.5139C5.11599 27.2438 4.6794 27.2401 4.40474 27.5053Z" fill="white"/>
<path d="M0.90493 24.7053L0.20493 25.4053C0.0229604 25.581 -0.0500188 25.8413 0.014042 26.086C0.0781028 26.3308 0.269234 26.5219 0.513975 26.586C0.758716 26.65 1.01898 26.5771 1.19473 26.3951L1.89473 25.6951C2.16001 25.4204 2.15622 24.9838 1.8862 24.7138C1.61619 24.4438 1.1796 24.44 0.90493 24.7053Z" fill="white"/>
<path d="M16.5786 29.4363C16.212 29.5584 16.0137 29.9544 16.1355 30.3211L16.8355 32.4211C16.9577 32.7884 17.3544 32.9871 17.7217 32.8649C18.089 32.7427 18.2877 32.346 18.1655 31.9787L17.4655 29.8787C17.4067 29.7023 17.2802 29.5565 17.1138 29.4735C16.9474 29.3905 16.7549 29.3771 16.5786 29.4363Z" fill="white"/>
<path d="M20.7947 27.5053C20.52 27.2401 20.0834 27.2438 19.8134 27.5139C19.5434 27.7839 19.5396 28.2205 19.8049 28.4951L21.2049 29.8951C21.4796 30.1604 21.9162 30.1566 22.1862 29.8866C22.4562 29.6166 22.46 29.18 22.1947 28.9053L20.7947 27.5053Z" fill="white"/>
<path d="M24.2947 24.7053C24.02 24.44 23.5834 24.4438 23.3134 24.7138C23.0434 24.9838 23.0396 25.4204 23.3049 25.6951L24.0049 26.3951C24.2796 26.6604 24.7162 26.6566 24.9862 26.3866C25.2562 26.1165 25.26 25.6799 24.9947 25.4053L24.2947 24.7053Z" fill="white"/>
<path d="M12.6 23.1001C13.7598 23.1001 14.7 22.1599 14.7 21.0001C14.7 19.8403 13.7598 18.9001 12.6 18.9001C11.4402 18.9001 10.5 19.8403 10.5 21.0001C10.5 22.1599 11.4402 23.1001 12.6 23.1001ZM12.6 20.3001C12.9866 20.3001 13.3 20.6135 13.3 21.0001C13.3 21.3867 12.9866 21.7001 12.6 21.7001C12.2134 21.7001 11.9 21.3867 11.9 21.0001C11.9 20.6135 12.2134 20.3001 12.6 20.3001Z" fill="white"/>
</g>
<defs>
<clipPath id="clip0_239_378">
<rect width="42" height="42" fill="white"/>
</clipPath>
</defs>
</svg>
