<svg width="48" height="48" viewBox="0 0 48 48" fill="none" xmlns="http://www.w3.org/2000/svg">
<g clip-path="url(#clip0_239_269)">
<path d="M47.2683 35.1994C45.3793 35.0724 43.4832 35.0992 41.5985 35.2794V34.2532C42.1462 34.0738 42.6084 33.6987 42.8968 33.1998C43.3066 32.4909 43.2991 31.6155 42.8776 30.9136C42.5364 30.3447 42.1625 29.7962 41.7577 29.2707C41.5199 28.9866 41.1684 28.8224 40.7978 28.8224C40.4273 28.8224 40.0757 28.9866 39.8379 29.2707C39.4334 29.7958 39.0595 30.3439 38.718 30.9121C38.2965 31.6143 38.2892 32.4899 38.6988 33.199C38.9874 33.6985 39.4503 34.074 39.9987 34.2533V35.4532C36.1838 35.8826 32.5011 37.1062 29.1879 39.0455C26.4645 38.5381 23.8133 37.7003 21.2928 36.5507C22.9939 35.893 24.6256 35.0685 26.1643 34.0893L26.2442 34.0398C26.3354 33.9845 26.4283 33.9277 26.4994 33.8797C37.8037 26.495 46.7259 27.2005 47.1019 27.2373C47.5419 27.277 47.9308 26.9526 47.9705 26.5126C48.0103 26.0726 47.6859 25.6837 47.2458 25.6439C46.9763 25.6191 42.5208 25.2663 35.9991 27.4541V25.5079C37.0639 25.2742 37.9833 24.6075 38.5364 23.6681C39.3142 22.365 39.3569 20.7509 38.6492 19.4086C37.9995 18.1975 37.2825 17.0238 36.5015 15.893C36.2106 15.4584 35.7221 15.1975 35.1992 15.1975C34.6764 15.1975 34.1879 15.4584 33.897 15.893C33.116 17.0238 32.399 18.1975 31.7493 19.4086C31.0416 20.7509 31.0843 22.365 31.862 23.6681C32.4152 24.6075 33.3345 25.2741 34.3994 25.5079V28.0292C33.3283 28.4387 32.2124 28.9139 31.0565 29.469C29.8605 27.5009 27.6974 26.3292 25.3955 26.4028C23.0937 26.4764 21.0098 27.7837 19.9418 29.8242C18.1516 28.8655 16.301 28.0243 14.4016 27.3061V25.1391C15.1675 24.9152 15.8204 24.41 16.2294 23.7249C16.9224 22.5927 16.9873 21.1844 16.4014 19.9933C15.907 19.0017 15.3598 18.0372 14.7624 17.1041C14.5161 16.697 14.0748 16.4482 13.5989 16.4482C13.123 16.4482 12.6818 16.697 12.4354 17.1041C11.8396 18.0372 11.2943 19.0016 10.802 19.9933C10.2171 21.185 10.2832 22.5933 10.9772 23.7249C11.3856 24.4094 12.0371 24.9144 12.8019 25.1391V26.739C10.9723 26.1241 9.10103 25.6408 7.20253 25.2928V24.4008C7.69054 24.2133 8.10412 23.8718 8.38083 23.4281C8.89171 22.5954 8.94055 21.5591 8.51038 20.682C8.17639 20.0115 7.80659 19.3594 7.40248 18.7287C7.17582 18.3997 6.80199 18.2034 6.40256 18.2034C6.00314 18.2034 5.62931 18.3997 5.40265 18.7287C4.99872 19.359 4.62892 20.0106 4.29474 20.6804C3.86457 21.5578 3.91351 22.5943 4.42429 23.4273C4.70082 23.8712 5.1144 24.2129 5.60259 24.4007V25.0407C4.01409 24.8083 2.40693 24.728 0.803146 24.8007C0.517335 24.8216 0.264427 24.9934 0.139566 25.2512C0.0147053 25.5092 0.0370152 25.814 0.197965 26.0511C0.358916 26.2882 0.634134 26.4214 0.919945 26.4005C1.81506 26.3357 9.97646 25.9357 20.4057 31.8958C21.5278 32.5354 22.6929 33.0967 23.8925 33.5757C22.5623 34.3058 21.1704 34.9177 19.733 35.4042C18.918 34.0219 18.0756 32.7917 17.4717 31.9534C17.1334 31.481 16.5881 31.2008 16.007 31.2008C15.426 31.2008 14.8806 31.4811 14.5423 31.9534C14.332 32.2462 14.0896 32.5934 13.832 32.9693C9.62541 31.5194 5.17308 30.918 0.732654 31.1998C0.446843 31.225 0.196184 31.4007 0.0750734 31.6607C-0.0460377 31.9208 -0.0192283 32.2257 0.145471 32.4606C0.310171 32.6955 0.587639 32.8248 0.87345 32.7996C4.9512 32.5584 9.03804 33.082 12.9232 34.3434C12.5585 34.9209 12.185 35.5432 11.8266 36.1832C10.9706 37.7026 10.9925 39.5638 11.8841 41.0626C12.6005 42.2963 13.8346 43.1417 15.2438 43.3639V45.7181C13.1998 46.1462 11.1176 46.3662 9.02932 46.3748L0.803052 46.398C0.361259 46.398 0.00317539 46.7561 0.00317539 47.1978C0.00317539 47.6396 0.361259 47.9977 0.803052 47.9977L9.03167 47.9746C11.3775 47.9657 13.7153 47.7025 16.0045 47.1899C16.0173 47.1899 16.0285 47.1978 16.042 47.1978C16.1658 47.1957 16.2873 47.1641 16.3964 47.1059C18.9648 46.5084 21.4439 45.5765 23.7699 44.3342C25.5781 43.3515 27.3259 42.2614 29.0037 41.0697C29.2509 40.8898 29.5061 40.725 29.7741 40.5594C36.9269 35.9623 47.0241 36.7871 47.1249 36.7998C47.5669 36.8394 47.9573 36.5131 47.9968 36.0711C48.0363 35.6291 47.7102 35.239 47.2683 35.1994ZM33.2322 22.848C32.7353 22.028 32.7092 21.0063 33.1634 20.1619C33.8745 18.8189 34.6721 17.5942 35.1832 16.8023C35.9289 17.8832 36.614 19.0048 37.235 20.1619C37.6892 21.0063 37.6631 22.028 37.1662 22.848C36.7676 23.5602 36.0152 24.0012 35.1992 24.0012C34.3831 24.0012 33.6308 23.5602 33.2322 22.848ZM7.02246 22.5817C6.89722 22.8098 6.66241 22.9565 6.40256 22.9689C6.14262 22.9564 5.9079 22.8098 5.78266 22.5817C5.56191 22.2186 5.54204 21.7679 5.72989 21.3866C5.95149 20.9387 6.18902 20.5139 6.40266 20.1548C6.61619 20.5139 6.85382 20.9388 7.07542 21.3875C7.26309 21.7684 7.24322 22.2189 7.02246 22.5817ZM12.3322 22.8808C11.9282 22.2191 11.8911 21.3966 12.2338 20.7011C12.697 19.7612 13.2065 18.8934 13.6016 18.259C13.9968 18.8934 14.5063 19.7613 14.9695 20.7011C15.3123 21.3966 15.2752 22.2191 14.8711 22.8808C14.624 23.3533 14.1348 23.6494 13.6016 23.6494C13.0684 23.6495 12.5794 23.3533 12.3322 22.8808ZM21.3481 30.5864C22.1736 29.0001 23.812 28.0035 25.6003 28.0003C27.2273 27.9987 28.7437 28.8236 29.6263 30.1904C28.3384 30.8664 27.0106 31.6375 25.6499 32.5246C24.1607 32.0088 22.721 31.3601 21.3481 30.5864ZM16.0015 41.8282C14.8726 41.8282 13.8292 41.2268 13.2633 40.2501V40.2525C12.6612 39.2418 12.6466 37.9861 13.2249 36.9617C14.0175 35.5556 14.889 34.1955 15.835 32.8878C15.8726 32.8329 15.9348 32.8001 16.0014 32.8001C16.0679 32.8001 16.1302 32.8329 16.1677 32.8878C17.1138 34.1947 17.9852 35.5541 18.7778 36.9594C19.3562 37.9838 19.3415 39.2395 18.7394 40.2502C18.1736 41.2268 17.1303 41.8282 16.0015 41.8282ZM23.0142 42.9258C21.0588 43.9689 18.9882 44.7799 16.8445 45.3423V43.3481C18.219 43.1061 19.417 42.2702 20.1185 41.0635C20.6528 40.1612 20.8823 39.1108 20.7728 38.0679C22.8792 39.0094 25.0683 39.7538 27.312 40.2917C25.9257 41.243 24.4911 42.1221 23.0142 42.9258ZM40.7986 32.7759C40.5165 32.7759 40.2521 32.6385 40.0898 32.4078C39.965 32.1973 39.9678 31.9348 40.097 31.727C40.3274 31.3374 40.577 30.9679 40.7986 30.6607C41.0193 30.9679 41.2697 31.3374 41.5001 31.7278C41.6292 31.9353 41.6319 32.1974 41.5073 32.4077C41.3451 32.6385 41.0806 32.7759 40.7986 32.7759Z" fill="white"/>
<path d="M12.4021 12.8024H14.4427C14.6389 14.1763 15.8136 15.1981 17.2015 15.2021H24.4007C25.8845 15.2018 27.1104 14.044 27.1954 12.5627C27.2803 11.0813 26.1948 9.79099 24.7207 9.62113C24.346 7.75272 22.7068 6.407 20.8012 6.40306C20.4343 6.40738 20.0698 6.46287 19.7182 6.56786C19.0834 4.90614 17.4248 3.86564 15.6524 4.01731C13.88 4.16898 12.4223 5.47598 12.079 7.22141C10.6043 7.39126 9.51859 8.68261 9.60436 10.1645C9.69013 11.6465 10.9176 12.8039 12.4021 12.8024ZM20.8011 8.00291C22.1264 8.00291 23.2008 9.07735 23.2008 10.4026C23.2008 10.8444 23.5589 11.2025 24.0007 11.2025H24.4007C25.0634 11.2025 25.6006 11.7397 25.6006 12.4024C25.6023 12.7211 25.4765 13.0273 25.251 13.2527C25.0257 13.478 24.7194 13.6039 24.4007 13.6022H17.2015C16.5389 13.6022 16.0017 13.065 16.0017 12.4024C16.0017 11.7397 16.5389 11.2025 17.2015 11.2025H17.6015C18.0433 11.2025 18.4014 10.8444 18.4014 10.4026C18.4014 9.07735 19.4757 8.00291 20.8011 8.00291ZM11.5518 9.15234C11.7771 8.92699 12.0834 8.8011 12.4021 8.80279H12.8021C13.2439 8.80279 13.602 8.44461 13.602 8.00291C13.6035 6.8172 14.4708 5.81026 15.6432 5.63318C16.8156 5.45611 17.9417 6.16187 18.2934 7.29424C17.5652 7.88096 17.0657 8.70436 16.8816 9.62113C15.9202 9.72312 15.0838 10.324 14.6802 11.2025H12.4021C11.7395 11.2025 11.2022 10.6653 11.2022 10.0027C11.2005 9.68394 11.3263 9.37779 11.5518 9.15234Z" fill="white"/>
<path d="M33.1991 8.80247H40.3983C41.8821 8.80219 43.108 7.64442 43.193 6.16306C43.2779 4.68169 42.1924 3.39138 40.7183 3.22152C40.3462 1.34992 38.7038 0.00195312 36.7956 0.00195312C34.8875 0.00195312 33.245 1.34992 32.8729 3.22152C31.3977 3.39147 30.3117 4.68376 30.3984 6.16624C30.485 7.64882 31.7141 8.80566 33.1991 8.80247ZM32.3488 5.15255C32.5742 4.9271 32.8803 4.80121 33.1991 4.80299H33.5991C34.0409 4.80299 34.399 4.44491 34.399 4.00312C34.399 2.67783 35.4734 1.60339 36.7987 1.60339C38.124 1.60339 39.1984 2.67783 39.1984 4.00312C39.1984 4.44491 39.5565 4.80299 39.9983 4.80299H40.3983C40.827 4.80299 41.2231 5.03172 41.4374 5.40292C41.6517 5.77413 41.6517 6.23158 41.4374 6.60279C41.2231 6.97399 40.827 7.20272 40.3983 7.20272H33.1991C32.7126 7.20422 32.2735 6.91184 32.0871 6.46255C31.9008 6.01317 32.0042 5.49573 32.3488 5.15255Z" fill="white"/>
</g>
<defs>
<clipPath id="clip0_239_269">
<rect width="48" height="48" fill="white"/>
</clipPath>
</defs>
</svg>
