<svg width="46" height="46" viewBox="0 0 46 46" fill="none" xmlns="http://www.w3.org/2000/svg">
<g clip-path="url(#clip0_239_289)">
<path d="M19.167 20.1249C19.167 22.3177 22.3663 23.5811 22.7313 23.7183C22.9043 23.7822 23.0945 23.7822 23.2679 23.7183C23.6343 23.5811 26.8335 22.3177 26.8335 20.1249C26.7995 18.7179 25.634 17.6037 24.227 17.6331C23.7932 17.6261 23.3668 17.7461 23.0001 17.9781C22.6337 17.7461 22.2073 17.6261 21.7735 17.6331C20.3665 17.6037 19.2007 18.7179 19.167 20.1249ZM21.7735 19.1665C22.0388 19.164 22.2894 19.2896 22.4459 19.5041C22.7527 19.808 23.2475 19.808 23.5546 19.5041C23.7111 19.2896 23.9613 19.164 24.227 19.1665C24.7871 19.1373 25.2662 19.5651 25.3002 20.1249C25.3002 20.9339 23.8919 21.7811 23.0001 22.172C22.1087 21.7811 20.7003 20.9339 20.7003 20.1249C20.7343 19.5651 21.2134 19.1373 21.7735 19.1665Z" fill="white"/>
<path d="M44.6537 14.7091C44.0893 14.4912 43.4594 14.521 42.9182 14.7913C42.3977 15.0485 42.0068 15.51 41.8387 16.0656L41.3379 17.7452C40.9978 18.9848 40.2812 20.0882 39.2873 20.9031C38.8058 21.2867 38.3832 21.739 38.0337 22.2455C37.5164 22.9895 36.8408 23.6089 36.055 24.0595L35.6791 24.2743C35.2531 23.9427 34.7281 23.764 34.1879 23.7668C33.4008 23.7602 32.6617 24.1455 32.2163 24.7948L29.6779 28.4626C28.5538 28.776 24.66 30.0924 23 33.458C21.3403 30.0924 17.4465 28.776 16.3224 28.4626L13.7924 24.8039C13.3471 24.149 12.6041 23.7598 11.812 23.7668C11.2722 23.764 10.7472 23.9427 10.3212 24.2743L9.95232 24.0641C9.16057 23.6117 8.47938 22.9884 7.95892 22.2395C7.61007 21.7355 7.18893 21.2853 6.70918 20.9038C5.71494 20.0885 4.99829 18.9844 4.65857 17.7445L4.15777 16.0656C3.99036 15.5107 3.60116 15.0496 3.0821 14.7913C2.54093 14.5203 1.91028 14.4905 1.3456 14.7091C0.529284 15.0285 -0.00591679 15.8181 4.93747e-05 16.6948V19.455C0.00145318 20.397 0.22922 21.3249 0.664751 22.1605L2.07031 24.8808C2.37283 25.4665 2.76905 25.9992 3.24319 26.4576L7.35247 30.423C10.2345 33.5148 14.2932 38.4868 14.2932 39.8667C14.1476 40.8567 13.797 41.8057 13.2635 42.6526C12.8898 43.3552 12.914 44.2031 13.3278 44.8829C13.7524 45.583 14.5147 46.0077 15.3335 45.9999H19.9334C20.8164 46.0098 21.6288 45.5181 22.0296 44.7312C22.4307 43.8977 22.7554 43.0302 23 42.1384C23.2449 43.0302 23.5696 43.8977 23.9707 44.7312C24.3715 45.5181 25.1836 46.0098 26.0666 45.9999H30.6669C31.4856 46.0077 32.2482 45.5834 32.6732 44.8829C33.0867 44.2031 33.1112 43.3552 32.7375 42.6526C32.204 41.8057 31.8531 40.8567 31.7071 39.8667C31.7071 38.4868 35.7658 33.5148 38.6201 30.4521L42.7603 26.4576C43.233 25.9989 43.6282 25.4661 43.93 24.8808L45.3306 22.1675C45.7683 21.3312 45.9981 20.4019 45.9999 19.4579V16.698C46.0076 15.8199 45.4717 15.0285 44.6537 14.7091ZM20.657 44.042C20.5159 44.309 20.2355 44.4736 19.9334 44.4666H15.3335C15.0516 44.4743 14.787 44.3308 14.6396 44.0901C14.5038 43.8693 14.4968 43.5924 14.6214 43.365C15.2847 42.3062 15.6967 41.1094 15.8265 39.8667C15.8265 37.3904 9.70139 30.6943 8.44569 29.348L4.30587 25.3538C3.95071 25.012 3.65415 24.6144 3.42779 24.1767L2.02574 21.4558C1.70321 20.8392 1.53441 20.1538 1.53335 19.4579V16.698C1.52739 16.4604 1.66601 16.2431 1.88395 16.1484C1.96046 16.1179 2.04223 16.1017 2.12471 16.1C2.21981 16.0996 2.31387 16.1217 2.39915 16.1645C2.53918 16.2319 2.64517 16.354 2.69184 16.5025L3.19195 18.18C3.62116 19.7239 4.5196 21.0961 5.76302 22.1068C6.12344 22.3939 6.4393 22.7322 6.70076 23.1113C7.34896 24.0458 8.19721 24.8246 9.18409 25.3903L9.49608 25.569C9.45151 25.7416 9.428 25.9192 9.42554 26.0975C9.4287 26.3544 9.47292 26.6095 9.5568 26.8524C9.7414 27.3707 9.91687 27.9305 10.0625 28.4664C10.4163 29.7902 11.1224 30.9929 12.1058 31.9471C12.1254 31.9665 12.1465 31.9847 12.1686 32.0015L16.1782 35.1064C16.5133 35.3658 16.9949 35.3043 17.2542 34.9695C17.5136 34.6347 17.4525 34.1529 17.1173 33.8935L13.1414 30.8153C12.3721 30.058 11.8201 29.108 11.5432 28.0646C11.3898 27.4887 11.1982 26.8924 11.0066 26.3572C10.9767 26.2737 10.9603 26.1859 10.9574 26.0975C10.9574 25.9519 11.002 25.8097 11.0855 25.6904C11.0915 25.6809 11.0922 25.6711 11.0985 25.662C11.1045 25.6525 11.1206 25.6349 11.1298 25.6199C11.3105 25.4212 11.5688 25.3121 11.8369 25.3215C12.1051 25.3307 12.3556 25.457 12.522 25.6672L15.2215 29.5695C15.3324 29.7295 15.4998 29.8414 15.69 29.8832C15.9592 29.9415 22.2335 31.3698 22.2335 36.8001C22.237 39.2992 21.7001 41.7696 20.6595 44.042H20.657ZM44.4666 19.4579C44.4655 20.1552 44.296 20.842 43.9721 21.4597L42.5701 24.1767C42.3433 24.6144 42.0464 25.012 41.6913 25.3538L37.5262 29.3771C36.2993 30.6943 30.1738 37.3904 30.1738 39.8667C30.3033 41.1094 30.7156 42.3062 31.3789 43.365C31.5035 43.5924 31.4965 43.8693 31.3607 44.0901C31.2133 44.3308 30.9487 44.4743 30.6669 44.4666H26.0666C25.7637 44.4743 25.4826 44.3097 25.3408 44.042C24.3003 41.7696 23.7633 39.2992 23.7668 36.8001C23.7668 31.3698 30.0411 29.9415 30.3089 29.8832C30.4987 29.8414 30.6662 29.7295 30.7771 29.5695L33.4825 25.6595C33.6429 25.4412 33.8953 25.3089 34.1662 25.3012C34.4371 25.2935 34.6965 25.4114 34.8688 25.6206C34.8779 25.6356 34.8909 25.6479 34.9004 25.6627C34.9095 25.6771 34.907 25.6816 34.9134 25.6911C34.9965 25.8104 35.0411 25.9526 35.0415 26.0982C35.039 26.1803 35.0246 26.2617 34.9983 26.3397C34.8021 26.8931 34.6151 27.4897 34.4564 28.0684C34.1792 29.1108 33.6275 30.0597 32.8585 30.816L28.8826 33.8942C28.5482 34.1539 28.4871 34.6361 28.7472 34.9706C29.0069 35.3054 29.4887 35.3661 29.8235 35.1064L33.8331 32.0015C33.8552 31.9847 33.8763 31.9665 33.896 31.9471C34.8786 30.994 35.5847 29.792 35.9385 28.4692C36.0848 27.9326 36.2603 27.3707 36.4505 26.8348C36.5312 26.5973 36.5737 26.3484 36.5762 26.0975C36.5737 25.9192 36.5502 25.7416 36.5056 25.569L36.8246 25.3858C37.807 24.8221 38.6513 24.0469 39.2971 23.1165C39.56 22.7354 39.8772 22.395 40.2394 22.1061C41.4821 21.0961 42.3802 19.7246 42.8091 18.1814L43.3099 16.5025C43.3565 16.354 43.4625 16.2319 43.6026 16.1645C43.7636 16.0856 43.9507 16.0785 44.1171 16.1452C44.3353 16.24 44.474 16.4572 44.4684 16.6948L44.4666 19.4579Z" fill="white"/>
<path d="M19.503 11.5652C16.5192 13.0312 14.6125 16.0493 14.57 19.3735C14.4872 22.6728 16.363 25.7086 19.3503 27.1106C19.5058 27.1882 19.6402 27.3029 19.7413 27.4444C20.4899 28.506 21.7087 29.1363 23.0079 29.1335C24.3068 29.1307 25.5232 28.4951 26.2672 27.4303C26.3637 27.2966 26.4915 27.1882 26.6399 27.1155C29.5472 25.7461 31.4111 22.8304 31.4328 19.6168C31.4328 15.8384 29.5286 12.749 26.4627 11.5523C26.2226 11.4554 26.0658 11.222 26.0661 10.9634V7.96097C26.0626 7.1787 26.5167 6.46662 27.2278 6.14024C27.8861 5.77946 28.2146 5.0172 28.0251 4.29073C27.8356 3.56426 27.1765 3.05994 26.4258 3.06661H26.0661V1.73651C26.0654 0.777707 25.2884 0.000701902 24.33 0H21.6694C20.711 0.000701902 19.9339 0.777707 19.9329 1.73651V3.06661H19.5735C18.6642 3.0645 17.9248 3.79869 17.9205 4.70801C17.9205 5.30533 18.2469 5.85456 18.7716 6.14024C19.4795 6.42311 19.941 7.11202 19.9329 7.87429V10.9634C19.9227 11.2318 19.7536 11.4684 19.503 11.5652ZM21.4662 1.73651C21.4662 1.6242 21.5571 1.5333 21.6694 1.5333H24.33C24.4419 1.5333 24.5328 1.6242 24.5328 1.73651V3.06661H21.4662V1.73651ZM19.5058 4.79399C19.4735 4.77715 19.4531 4.7431 19.4538 4.7066C19.4574 4.64413 19.5111 4.59641 19.5735 4.59992H26.4258C26.4887 4.59711 26.542 4.64519 26.5455 4.70801C26.5459 4.74416 26.5255 4.7775 26.4932 4.79399C25.2881 5.3878 24.5268 6.61718 24.5328 7.96097V10.9634C24.5349 11.8534 25.0782 12.6525 25.9054 12.982C28.3662 13.9426 29.8995 16.4831 29.8995 19.6168C29.8795 22.2384 28.3564 24.6157 25.9836 25.73C25.6064 25.9114 25.2796 26.1831 25.0329 26.5214C24.5826 27.2033 23.8165 27.6093 22.9995 27.5998C22.186 27.617 21.4209 27.2141 20.9749 26.5337C20.7246 26.189 20.393 25.9118 20.0098 25.7261C17.5699 24.5859 16.0356 22.1103 16.0998 19.4181C16.1416 16.6895 17.6886 14.2072 20.12 12.968C20.9254 12.6248 21.4532 11.839 21.4662 10.9634V7.87429C21.475 6.55155 20.7078 5.34639 19.5058 4.79399Z" fill="white"/>
<path d="M33.191 7.89134L31.6577 9.42465C31.4584 9.61733 31.3787 9.9023 31.4489 10.1704C31.5187 10.4386 31.7282 10.6477 31.9964 10.7179C32.2645 10.7881 32.5495 10.7081 32.7418 10.5087L34.2751 8.97544C34.5657 8.67467 34.5615 8.19667 34.266 7.90082C33.9701 7.60497 33.4921 7.60111 33.191 7.89134Z" fill="white"/>
<path d="M32.9668 12.2668C32.9668 12.6901 33.31 13.0333 33.7336 13.0333H35.2669C35.6902 13.0333 36.0334 12.6901 36.0334 12.2668C36.0334 11.8432 35.6902 11.5 35.2669 11.5H33.7336C33.31 11.5 32.9668 11.8432 32.9668 12.2668Z" fill="white"/>
<path d="M13.8004 10.7334C14.1103 10.7334 14.39 10.5466 14.5086 10.2603C14.6272 9.97389 14.5616 9.644 14.3422 9.42465L12.8089 7.89134C12.5082 7.60111 12.0302 7.60497 11.7343 7.90082C11.4385 8.19667 11.4346 8.67467 11.7248 8.97543L13.2581 10.5087C13.402 10.6526 13.5972 10.7334 13.8004 10.7334Z" fill="white"/>
<path d="M9.9668 12.2668C9.9668 12.6901 10.31 13.0333 10.7336 13.0333H12.2669C12.6902 13.0333 13.0334 12.6901 13.0334 12.2668C13.0334 11.8432 12.6902 11.5 12.2669 11.5H10.7336C10.31 11.5 9.9668 11.8432 9.9668 12.2668Z" fill="white"/>
</g>
<defs>
<clipPath id="clip0_239_289">
<rect width="46" height="46" fill="white"/>
</clipPath>
</defs>
</svg>
