<svg width="50" height="50" viewBox="0 0 50 50" fill="none" xmlns="http://www.w3.org/2000/svg">
<g clip-path="url(#clip0_239_305)">
<path d="M25.0004 28.3333C25.3193 28.3336 25.6317 28.2441 25.9021 28.075C35.7871 21.8558 38.4479 11.9791 39.1521 6.64414C39.2808 5.73733 38.6505 4.89768 37.7437 4.76831C34.4421 4.27914 29.7262 3.11331 26.0087 0.337477C25.4119 -0.113794 24.588 -0.113794 23.9912 0.337477C20.2754 3.11248 15.5587 4.27914 12.2571 4.76831C11.3503 4.89768 10.7199 5.73733 10.8487 6.64414C11.5529 11.9775 14.2129 21.8558 24.0987 28.075C24.3689 28.2444 24.6815 28.334 25.0004 28.3333ZM12.5004 6.41664C15.9921 5.89914 20.9929 4.65498 25.0104 1.67164C29.0071 4.65664 34.0079 5.89998 37.5004 6.42581C36.8337 11.4708 34.3237 20.8075 25.0146 26.6666C25.0051 26.6695 24.9949 26.6695 24.9854 26.6666C15.6771 20.8075 13.1671 11.4708 12.5004 6.41664Z" fill="white"/>
<path d="M26.0177 23.9415C30.6516 20.3093 33.9052 15.2028 35.2394 9.46819C35.3488 9.03431 35.2791 8.57468 35.046 8.19272C34.8129 7.81076 34.4361 7.53856 34.0002 7.43736C31.1371 6.78783 28.3891 5.70747 25.8502 4.23319C25.3265 3.92032 24.6732 3.92032 24.1494 4.23319C21.6107 5.70728 18.8631 6.78763 16.0002 7.43736C15.5652 7.53932 15.1893 7.81171 14.9569 8.19338C14.7246 8.57506 14.6552 9.03406 14.7644 9.46736C16.0969 15.2018 19.3491 20.3087 23.9819 23.9415C24.583 24.4004 25.4167 24.4004 26.0177 23.9415ZM16.3852 9.05902C19.4125 8.3723 22.3175 7.22834 25.0002 5.66652C27.6882 7.22798 30.5961 8.37532 33.6261 9.06986C32.3797 14.4386 29.333 19.2188 24.9927 22.6157C20.659 19.213 17.6213 14.4286 16.3852 9.05902Z" fill="white"/>
<path d="M20.6069 11.3584C20.4984 11.0795 20.2486 10.8803 19.9526 10.8364C19.6566 10.7925 19.3598 10.9108 19.175 11.1461C18.9902 11.3815 18.9458 11.6979 19.0586 11.975C19.9206 14.1676 21.1213 16.2113 22.6169 18.0317C22.9106 18.3863 23.4361 18.4357 23.7907 18.1421C24.1453 17.8485 24.1947 17.323 23.9011 16.9684C22.5166 15.282 21.4051 13.389 20.6069 11.3584Z" fill="white"/>
<path d="M5.01167 28.3233C5.095 31.6267 5.73 33.99 7.18833 36.1433C5.64258 36.0905 4.15347 36.7282 3.125 37.8833C2.59264 38.4867 2.64853 39.4071 3.25 39.9417L5.1175 41.6033C7.23485 43.4838 10.4667 43.328 12.3933 41.2525C14.3528 42.5732 16.4727 43.6387 18.7017 44.4233C17.4205 45.4055 16.6685 46.9273 16.6667 48.5416C16.6676 49.3467 17.32 49.9991 18.125 50H20.625C22.3953 49.9982 24.0433 49.097 25 47.6075C25.9567 49.097 27.6047 49.9982 29.375 50H31.875C32.68 49.9991 33.3324 49.3467 33.3333 48.5416C33.3323 46.9279 32.5816 45.4062 31.3017 44.4233C33.5304 43.64 35.6503 42.5759 37.61 41.2566C39.5366 43.3321 42.7685 43.488 44.8858 41.6075L46.75 39.9417C47.3508 39.4058 47.4048 38.4849 46.8708 37.8825C45.8428 36.7272 44.3539 36.0894 42.8083 36.1425C44.2667 33.9875 44.8983 31.6267 44.985 28.3233C47.7815 28.2186 49.9957 25.9234 50 23.125V20.625C49.9991 19.82 49.3467 19.1676 48.5417 19.1667C47.2262 19.1669 45.9601 19.6674 45 20.5667V18.3333C45 17.8731 44.6269 17.5 44.1667 17.5C43.7064 17.5 43.3333 17.8731 43.3333 18.3333V20.5667C42.3732 19.6674 41.1071 19.1669 39.7917 19.1667C38.9866 19.1676 38.3342 19.82 38.3333 20.625V23.125C38.3379 25.9133 40.5367 28.2039 43.3225 28.3225C43.3409 30.1817 42.9788 32.0251 42.2583 33.7392C42.0752 32.8499 41.6613 32.0245 41.0583 31.3458C40.8016 31.0556 40.4394 30.8803 40.0525 30.8592C39.6663 30.8331 39.2861 30.9651 38.9992 31.225L37.1308 32.8867C35.0817 34.7163 34.8046 37.8223 36.4975 39.9858C35.3194 40.7541 34.0895 41.4399 32.8167 42.0383C33.1564 41.3369 33.333 40.5677 33.3333 39.7883C33.3306 38.9846 32.6787 38.3342 31.875 38.3333H29.375C27.6047 38.3351 25.9567 39.2363 25 40.7258C24.0433 39.2363 22.3953 38.3351 20.625 38.3333H18.125C17.32 38.3342 16.6676 38.9866 16.6667 39.7917C16.667 40.571 16.8436 41.3402 17.1833 42.0416C15.9096 41.4422 14.6788 40.7553 13.5 39.9858C15.1929 37.8223 14.9158 34.7163 12.8667 32.8867L11 31.2258C10.7129 30.9662 10.3329 30.834 9.94666 30.8592C9.55949 30.8801 9.19688 31.0554 8.94 31.3458C8.33702 32.0245 7.92317 32.8499 7.74 33.7392C7.01953 32.0251 6.65738 30.1817 6.67583 28.3225C9.46228 28.2047 11.662 25.9139 11.6667 23.125V20.625C11.6657 19.82 11.0134 19.1676 10.2083 19.1667C8.89288 19.1669 7.62676 19.6674 6.66667 20.5667V18.3333C6.66667 17.8731 6.29357 17.5 5.83333 17.5C5.3731 17.5 5 17.8731 5 18.3333V20.5667C4.03991 19.6674 2.77378 19.1669 1.45833 19.1667C0.653299 19.1676 0.000918466 19.82 0 20.625V23.125C0.00423628 25.9222 2.21652 28.2168 5.01167 28.3233ZM6.2225 40.3583L4.51417 38.8383C5.84222 37.5168 7.96886 37.4555 9.37083 38.6983L11.0792 40.2183C9.75129 41.5402 7.62432 41.6016 6.2225 40.3583ZM20.625 48.3333H18.3392C18.4515 46.4623 20.0006 45.0019 21.875 45H24.1608C24.0485 46.871 22.4994 48.3314 20.625 48.3333ZM29.375 48.3333C27.5006 48.3314 25.9515 46.871 25.8392 45H28.125C29.9994 45.0019 31.5485 46.4623 31.6608 48.3333H29.375ZM45.4858 38.8383L43.7775 40.3583C42.3757 41.6016 40.2487 41.5402 38.9208 40.2183L40.6292 38.6983C42.0308 37.4547 44.1581 37.516 45.4858 38.8383ZM48.3333 20.8392V23.125C48.331 24.9992 46.8708 26.5481 45 26.6608V24.375C45.0023 22.5008 46.4625 20.9519 48.3333 20.8392ZM40 23.125V20.8392C41.8708 20.9519 43.331 22.5008 43.3333 24.375V26.6608C41.4625 26.5481 40.0023 24.9992 40 23.125ZM38.2392 34.1317L39.9475 32.6133C41.0932 34.0711 40.9217 36.1655 39.5542 37.4175C39.5358 37.4358 39.52 37.4533 39.5017 37.4708L37.8133 38.9708C36.6545 37.4986 36.841 35.3789 38.2392 34.1317ZM29.375 40H31.6608C31.5485 41.871 29.9994 43.3314 28.125 43.3333H25.8392C25.9515 41.4623 27.5006 40.0019 29.375 40ZM18.3392 40H20.625C22.4994 40.0019 24.0485 41.4623 24.1608 43.3333H21.875C20.0006 43.3314 18.4515 41.871 18.3392 40ZM10.0525 32.6133L11.7608 34.1317C13.16 35.3791 13.3466 37.5 12.1867 38.9725L10.4983 37.4725C10.48 37.455 10.4642 37.4375 10.4458 37.4192C9.07727 36.167 8.90576 34.0714 10.0525 32.6133ZM10 20.8392V23.125C9.99767 24.9992 8.53749 26.5481 6.66667 26.6608V24.375C6.669 22.5008 8.12918 20.9519 10 20.8392ZM1.66667 20.8392C3.53749 20.9519 4.99767 22.5008 5 24.375V26.6608C3.12918 26.5481 1.669 24.9992 1.66667 23.125V20.8392Z" fill="white"/>
</g>
<defs>
<clipPath id="clip0_239_305">
<rect width="50" height="50" fill="white"/>
</clipPath>
</defs>
</svg>
