<svg width="60" height="56" viewBox="0 0 60 56" fill="none" xmlns="http://www.w3.org/2000/svg">
<g clip-path="url(#clip0_239_403)">
<path d="M49.1316 27.2067C49.9189 26.4393 50.1969 25.3132 49.8573 24.2663C49.5169 23.2195 48.6302 22.4722 47.5409 22.3136L37.8557 20.9063C37.4432 20.8462 37.0867 20.5875 36.9025 20.2135L32.5725 11.4373C32.0863 10.4514 31.0996 9.83862 29.9998 9.83862C28.9009 9.83862 27.9141 10.4514 27.4279 11.4373L23.0971 20.2135C22.9129 20.5875 22.5557 20.8462 22.1432 20.9063L12.458 22.3144C11.3695 22.4722 10.4828 23.2195 10.1424 24.2663C9.8028 25.3132 10.0807 26.4393 10.8681 27.2067L17.8757 34.0373C18.1744 34.3288 18.3114 34.7485 18.2409 35.1586L16.5869 44.8046C16.4011 45.8883 16.8376 46.9624 17.7275 47.6096C18.6166 48.2575 19.774 48.3416 20.7487 47.8282L29.4103 43.2739C29.7796 43.0801 30.2201 43.0801 30.5893 43.2739L39.2517 47.8282C39.6746 48.0509 40.1328 48.1606 40.5885 48.1606C41.1805 48.1606 41.77 47.9756 42.273 47.6096C43.1628 46.9624 43.5994 45.8883 43.4135 44.8046L41.7587 35.1594C41.6883 34.7485 41.8252 34.3296 42.124 34.0381L49.1316 27.2067ZM40.1809 35.4301L41.8348 45.0753C41.9181 45.5607 41.7299 46.0245 41.331 46.3144C40.9314 46.6035 40.434 46.6388 39.9974 46.4113L31.335 41.8562C30.9177 41.6376 30.458 41.5271 29.9998 41.5271C29.5417 41.5271 29.0827 41.6376 28.6646 41.857L20.0038 46.4113C19.5657 46.6388 19.0683 46.6035 18.6694 46.3144C18.2706 46.0245 18.0831 45.5615 18.1656 45.0753L19.8196 35.4301C19.979 34.4994 19.6706 33.5495 18.9946 32.8911L11.9862 26.0597C11.633 25.7153 11.5128 25.2299 11.6658 24.7613C11.818 24.292 12.2001 23.97 12.6879 23.8987L22.3723 22.4914C23.307 22.356 24.1152 21.7697 24.5325 20.9223L28.8633 12.1462C29.0811 11.7041 29.5064 11.4405 29.999 11.4405C30.4924 11.4405 30.9169 11.7041 31.1356 12.1462L35.4664 20.9223C35.8837 21.7697 36.6911 22.356 37.6258 22.4914L47.311 23.8987C47.7988 23.97 48.1809 24.292 48.333 24.7613C48.4852 25.2299 48.3659 25.7153 48.0126 26.0597L41.005 32.8903C40.329 33.5495 40.0207 34.4986 40.1809 35.4301Z" fill="white"/>
</g>
<path d="M13.0518 36.3154L9.01036 38.6487C8.45235 38.9709 7.77614 38.8443 7.5 38.366C7.22386 37.8877 7.45235 37.2388 8.01036 36.9167L12.0518 34.5833C12.6098 34.2612 13.286 34.3877 13.5622 34.866C13.8383 35.3443 13.6098 35.9932 13.0518 36.3154Z" fill="white"/>
<path d="M42.2715 16.6987L45.357 13.1976C45.783 12.7142 45.7925 12.0263 45.3782 11.6612C44.9638 11.296 44.2826 11.3919 43.8566 11.8753L40.7711 15.3764C40.3451 15.8598 40.3356 16.5476 40.7499 16.9128C41.1643 17.278 41.8455 17.1821 42.2715 16.6987Z" fill="white"/>
<path d="M46.5439 37.9863L50.5853 40.3196C51.1433 40.6418 51.8196 40.5152 52.0957 40.0369C52.3718 39.5586 52.1433 38.9097 51.5853 38.5876L47.5439 36.2542C46.9859 35.9321 46.3097 36.0586 46.0335 36.5369C45.7574 37.0152 45.9859 37.6641 46.5439 37.9863Z" fill="white"/>
<path d="M17.8564 16.6987L14.7709 13.1976C14.3449 12.7142 14.3354 12.0263 14.7498 11.6612C15.1641 11.296 15.8454 11.3919 16.2714 11.8753L19.3569 15.3764C19.7829 15.8598 19.7923 16.5476 19.378 16.9128C18.9636 17.278 18.2824 17.1821 17.8564 16.6987Z" fill="white"/>
<path d="M31 5.83333V1.16667C31 0.522334 30.5523 0 30 0C29.4477 0 29 0.522334 29 1.16667V5.83333C29 6.47767 29.4477 7 30 7C30.5523 7 31 6.47767 31 5.83333Z" fill="white"/>
<path d="M31 52.8333V48.1667C31 47.5223 30.5523 47 30 47C29.4477 47 29 47.5223 29 48.1667V52.8333C29 53.4777 29.4477 54 30 54C30.5523 54 31 53.4777 31 52.8333Z" fill="white"/>
<path d="M1.12709 23.2336L5.63475 24.4414C6.25712 24.6082 6.87754 24.3109 7.02048 23.7774C7.16342 23.244 6.77476 22.6763 6.15238 22.5096L1.64473 21.3017C1.02235 21.135 0.401939 21.4322 0.258997 21.9657C0.116055 22.4992 0.504715 23.0668 1.12709 23.2336Z" fill="white"/>
<path d="M11.2386 53.539L14.5385 50.2392C14.9941 49.7836 15.0468 49.0976 14.6563 48.7071C14.2658 48.3166 13.5799 48.3693 13.1243 48.825L9.82443 52.1248C9.36882 52.5804 9.31605 53.2663 9.70658 53.6569C10.0971 54.0474 10.783 53.9946 11.2386 53.539Z" fill="white"/>
<path d="M44.8253 51.2391L48.1251 54.539C48.5807 54.9946 49.2666 55.0473 49.6572 54.6568C50.0477 54.2663 49.9949 53.5804 49.5393 53.1247L46.2395 49.8249C45.7839 49.3693 45.0979 49.3165 44.7074 49.7071C44.3169 50.0976 44.3696 50.7835 44.8253 51.2391Z" fill="white"/>
<path d="M54.0107 23.6487L58.0521 21.3154C58.6101 20.9932 58.8386 20.3443 58.5625 19.866C58.2864 19.3877 57.6101 19.2612 57.0521 19.5833L53.0107 21.9167C52.4527 22.2388 52.2242 22.8877 52.5003 23.366C52.7765 23.8443 53.4527 23.9709 54.0107 23.6487Z" fill="white"/>
<defs>
<clipPath id="clip0_239_403">
<rect width="40" height="40" fill="white" transform="translate(10 9)"/>
</clipPath>
</defs>
</svg>
